<mxfile host="app.diagrams.net" agent="Mozilla/5.0 (Windows NT 10.0; Win64; x64) AppleWebKit/537.36 (KHTML, like Gecko) Chrome/135.0.0.0 Safari/537.36 Edg/135.0.0.0" version="26.2.10">
  <diagram name="Page-1" id="nvSyMESixOHC-Jdfbevt">
    <mxGraphModel dx="1420" dy="834" grid="1" gridSize="10" guides="1" tooltips="1" connect="1" arrows="1" fold="1" page="1" pageScale="1" pageWidth="827" pageHeight="1169" math="0" shadow="0">
      <root>
        <mxCell id="0" />
        <mxCell id="1" parent="0" />
        <mxCell id="TVstpjwdCTr6zIVwppkO-24" value="" style="rounded=0;whiteSpace=wrap;html=1;fontFamily=Helvetica;fontSize=11;fontColor=default;labelBackgroundColor=default;dashed=1;dashPattern=8 8;strokeColor=default;" vertex="1" parent="1">
          <mxGeometry x="330" y="130" width="330" height="110" as="geometry" />
        </mxCell>
        <mxCell id="TVstpjwdCTr6zIVwppkO-9" style="edgeStyle=orthogonalEdgeStyle;rounded=0;orthogonalLoop=1;jettySize=auto;html=1;exitX=1;exitY=0.5;exitDx=0;exitDy=0;entryX=0;entryY=0.5;entryDx=0;entryDy=0;startArrow=classic;startFill=1;" edge="1" parent="1" source="TVstpjwdCTr6zIVwppkO-1" target="TVstpjwdCTr6zIVwppkO-2">
          <mxGeometry relative="1" as="geometry" />
        </mxCell>
        <mxCell id="TVstpjwdCTr6zIVwppkO-26" value="" style="rounded=0;whiteSpace=wrap;html=1;fontFamily=Helvetica;fontSize=11;fontColor=default;labelBackgroundColor=default;dashed=1;dashPattern=8 8;strokeColor=default;" vertex="1" parent="1">
          <mxGeometry x="330" y="240" width="330" height="110" as="geometry" />
        </mxCell>
        <mxCell id="TVstpjwdCTr6zIVwppkO-10" style="edgeStyle=orthogonalEdgeStyle;shape=connector;rounded=0;orthogonalLoop=1;jettySize=auto;html=1;exitX=0.5;exitY=1;exitDx=0;exitDy=0;entryX=0.5;entryY=1;entryDx=0;entryDy=0;strokeColor=default;align=center;verticalAlign=middle;fontFamily=Helvetica;fontSize=11;fontColor=default;labelBackgroundColor=default;endArrow=classic;" edge="1" parent="1" source="TVstpjwdCTr6zIVwppkO-1" target="TVstpjwdCTr6zIVwppkO-2">
          <mxGeometry relative="1" as="geometry">
            <Array as="points">
              <mxPoint x="70" y="370" />
              <mxPoint x="240" y="370" />
            </Array>
          </mxGeometry>
        </mxCell>
        <mxCell id="TVstpjwdCTr6zIVwppkO-19" style="edgeStyle=orthogonalEdgeStyle;shape=connector;rounded=0;orthogonalLoop=1;jettySize=auto;html=1;exitX=0.5;exitY=1;exitDx=0;exitDy=0;entryX=0.5;entryY=1;entryDx=0;entryDy=0;strokeColor=default;align=center;verticalAlign=middle;fontFamily=Helvetica;fontSize=11;fontColor=default;labelBackgroundColor=default;endArrow=classic;" edge="1" parent="1" source="TVstpjwdCTr6zIVwppkO-1" target="TVstpjwdCTr6zIVwppkO-4">
          <mxGeometry relative="1" as="geometry">
            <Array as="points">
              <mxPoint x="70" y="370" />
              <mxPoint x="410" y="370" />
            </Array>
          </mxGeometry>
        </mxCell>
        <mxCell id="TVstpjwdCTr6zIVwppkO-20" style="edgeStyle=orthogonalEdgeStyle;shape=connector;rounded=0;orthogonalLoop=1;jettySize=auto;html=1;exitX=0.5;exitY=1;exitDx=0;exitDy=0;entryX=0.5;entryY=1;entryDx=0;entryDy=0;strokeColor=default;align=center;verticalAlign=middle;fontFamily=Helvetica;fontSize=11;fontColor=default;labelBackgroundColor=default;endArrow=classic;" edge="1" parent="1" source="TVstpjwdCTr6zIVwppkO-1" target="TVstpjwdCTr6zIVwppkO-11">
          <mxGeometry relative="1" as="geometry">
            <Array as="points">
              <mxPoint x="70" y="370" />
              <mxPoint x="580" y="370" />
            </Array>
          </mxGeometry>
        </mxCell>
        <mxCell id="TVstpjwdCTr6zIVwppkO-21" style="edgeStyle=orthogonalEdgeStyle;shape=connector;rounded=0;orthogonalLoop=1;jettySize=auto;html=1;exitX=0.5;exitY=0;exitDx=0;exitDy=0;entryX=0.5;entryY=0;entryDx=0;entryDy=0;strokeColor=default;align=center;verticalAlign=middle;fontFamily=Helvetica;fontSize=11;fontColor=default;labelBackgroundColor=default;endArrow=classic;" edge="1" parent="1" source="TVstpjwdCTr6zIVwppkO-1" target="TVstpjwdCTr6zIVwppkO-3">
          <mxGeometry relative="1" as="geometry">
            <Array as="points">
              <mxPoint x="70" y="80" />
              <mxPoint x="404" y="80" />
            </Array>
          </mxGeometry>
        </mxCell>
        <mxCell id="TVstpjwdCTr6zIVwppkO-1" value="Control computer" style="rounded=0;whiteSpace=wrap;html=1;" vertex="1" parent="1">
          <mxGeometry x="10" y="210" width="120" height="60" as="geometry" />
        </mxCell>
        <mxCell id="TVstpjwdCTr6zIVwppkO-5" style="edgeStyle=orthogonalEdgeStyle;rounded=0;orthogonalLoop=1;jettySize=auto;html=1;exitX=1;exitY=0.75;exitDx=0;exitDy=0;entryX=0;entryY=0.5;entryDx=0;entryDy=0;" edge="1" parent="1" source="TVstpjwdCTr6zIVwppkO-2" target="TVstpjwdCTr6zIVwppkO-4">
          <mxGeometry relative="1" as="geometry">
            <Array as="points">
              <mxPoint x="320" y="255" />
              <mxPoint x="320" y="280" />
            </Array>
          </mxGeometry>
        </mxCell>
        <mxCell id="TVstpjwdCTr6zIVwppkO-2" value="Cortex modem" style="rounded=0;whiteSpace=wrap;html=1;" vertex="1" parent="1">
          <mxGeometry x="180" y="210" width="120" height="60" as="geometry" />
        </mxCell>
        <mxCell id="TVstpjwdCTr6zIVwppkO-6" style="edgeStyle=orthogonalEdgeStyle;rounded=0;orthogonalLoop=1;jettySize=auto;html=1;exitX=0;exitY=0.5;exitDx=0;exitDy=0;entryX=1;entryY=0.25;entryDx=0;entryDy=0;" edge="1" parent="1" source="TVstpjwdCTr6zIVwppkO-3" target="TVstpjwdCTr6zIVwppkO-2">
          <mxGeometry relative="1" as="geometry">
            <Array as="points">
              <mxPoint x="320" y="200" />
              <mxPoint x="320" y="225" />
            </Array>
          </mxGeometry>
        </mxCell>
        <mxCell id="TVstpjwdCTr6zIVwppkO-3" value="Frequency&lt;div&gt;downconverter&lt;/div&gt;" style="rounded=0;whiteSpace=wrap;html=1;" vertex="1" parent="1">
          <mxGeometry x="344" y="170" width="120" height="60" as="geometry" />
        </mxCell>
        <mxCell id="TVstpjwdCTr6zIVwppkO-12" style="edgeStyle=orthogonalEdgeStyle;shape=connector;rounded=0;orthogonalLoop=1;jettySize=auto;html=1;exitX=1;exitY=0.5;exitDx=0;exitDy=0;entryX=0;entryY=0.5;entryDx=0;entryDy=0;strokeColor=default;align=center;verticalAlign=middle;fontFamily=Helvetica;fontSize=11;fontColor=default;labelBackgroundColor=default;endArrow=classic;" edge="1" parent="1" source="TVstpjwdCTr6zIVwppkO-4" target="TVstpjwdCTr6zIVwppkO-11">
          <mxGeometry relative="1" as="geometry" />
        </mxCell>
        <mxCell id="TVstpjwdCTr6zIVwppkO-4" value="Frequency&lt;div&gt;upconverter&lt;/div&gt;" style="rounded=0;whiteSpace=wrap;html=1;" vertex="1" parent="1">
          <mxGeometry x="350" y="250" width="120" height="60" as="geometry" />
        </mxCell>
        <mxCell id="TVstpjwdCTr6zIVwppkO-17" style="edgeStyle=orthogonalEdgeStyle;shape=connector;rounded=0;orthogonalLoop=1;jettySize=auto;html=1;exitX=1;exitY=0.5;exitDx=0;exitDy=0;entryX=0;entryY=0.75;entryDx=0;entryDy=0;strokeColor=default;align=center;verticalAlign=middle;fontFamily=Helvetica;fontSize=11;fontColor=default;labelBackgroundColor=default;endArrow=classic;" edge="1" parent="1" source="TVstpjwdCTr6zIVwppkO-11" target="TVstpjwdCTr6zIVwppkO-13">
          <mxGeometry relative="1" as="geometry" />
        </mxCell>
        <mxCell id="TVstpjwdCTr6zIVwppkO-11" value="Power amplifier" style="rounded=0;whiteSpace=wrap;html=1;fillColor=#dae8fc;strokeColor=#6c8ebf;" vertex="1" parent="1">
          <mxGeometry x="520" y="250" width="120" height="60" as="geometry" />
        </mxCell>
        <mxCell id="TVstpjwdCTr6zIVwppkO-18" style="edgeStyle=orthogonalEdgeStyle;shape=connector;rounded=0;orthogonalLoop=1;jettySize=auto;html=1;exitX=0;exitY=0.25;exitDx=0;exitDy=0;entryX=1;entryY=0.5;entryDx=0;entryDy=0;strokeColor=default;align=center;verticalAlign=middle;fontFamily=Helvetica;fontSize=11;fontColor=default;labelBackgroundColor=default;endArrow=classic;" edge="1" parent="1" source="TVstpjwdCTr6zIVwppkO-13" target="TVstpjwdCTr6zIVwppkO-14">
          <mxGeometry relative="1" as="geometry" />
        </mxCell>
        <mxCell id="TVstpjwdCTr6zIVwppkO-13" value="Diplekser&lt;div&gt;and&lt;/div&gt;&lt;div&gt;antenna&lt;/div&gt;" style="rounded=0;whiteSpace=wrap;html=1;" vertex="1" parent="1">
          <mxGeometry x="697" y="210" width="120" height="60" as="geometry" />
        </mxCell>
        <mxCell id="TVstpjwdCTr6zIVwppkO-15" style="edgeStyle=orthogonalEdgeStyle;shape=connector;rounded=0;orthogonalLoop=1;jettySize=auto;html=1;exitX=0;exitY=0.5;exitDx=0;exitDy=0;entryX=1;entryY=0.5;entryDx=0;entryDy=0;strokeColor=default;align=center;verticalAlign=middle;fontFamily=Helvetica;fontSize=11;fontColor=default;labelBackgroundColor=default;endArrow=classic;" edge="1" parent="1" source="TVstpjwdCTr6zIVwppkO-14" target="TVstpjwdCTr6zIVwppkO-3">
          <mxGeometry relative="1" as="geometry" />
        </mxCell>
        <mxCell id="TVstpjwdCTr6zIVwppkO-14" value="Low noise amplifier" style="rounded=0;whiteSpace=wrap;html=1;" vertex="1" parent="1">
          <mxGeometry x="520" y="170" width="120" height="60" as="geometry" />
        </mxCell>
        <mxCell id="TVstpjwdCTr6zIVwppkO-22" style="edgeStyle=orthogonalEdgeStyle;shape=connector;rounded=0;orthogonalLoop=1;jettySize=auto;html=1;exitX=0.5;exitY=0;exitDx=0;exitDy=0;entryX=0.5;entryY=0;entryDx=0;entryDy=0;strokeColor=default;align=center;verticalAlign=middle;fontFamily=Helvetica;fontSize=11;fontColor=default;labelBackgroundColor=default;endArrow=classic;" edge="1" parent="1" source="TVstpjwdCTr6zIVwppkO-1" target="TVstpjwdCTr6zIVwppkO-14">
          <mxGeometry relative="1" as="geometry">
            <Array as="points">
              <mxPoint x="70" y="80" />
              <mxPoint x="580" y="80" />
            </Array>
          </mxGeometry>
        </mxCell>
        <mxCell id="TVstpjwdCTr6zIVwppkO-25" value="RX" style="text;html=1;align=center;verticalAlign=middle;whiteSpace=wrap;rounded=0;fontFamily=Helvetica;fontSize=11;fontColor=default;labelBackgroundColor=default;" vertex="1" parent="1">
          <mxGeometry x="600" y="130" width="60" height="30" as="geometry" />
        </mxCell>
        <mxCell id="TVstpjwdCTr6zIVwppkO-27" value="TX" style="text;html=1;align=center;verticalAlign=middle;whiteSpace=wrap;rounded=0;fontFamily=Helvetica;fontSize=11;fontColor=default;labelBackgroundColor=default;" vertex="1" parent="1">
          <mxGeometry x="600" y="320" width="60" height="30" as="geometry" />
        </mxCell>
      </root>
    </mxGraphModel>
  </diagram>
</mxfile>
